<?xml version="1.0" encoding="UTF-8" standalone="no"?>
<svg width="492px" height="70px" viewBox="0 0 492 70" version="1.1" xmlns="http://www.w3.org/2000/svg" xmlns:xlink="http://www.w3.org/1999/xlink" xmlns:sketch="http://www.bohemiancoding.com/sketch/ns">
    <!-- Generator: Sketch 3.4.4 (17249) - http://www.bohemiancoding.com/sketch -->
    <title>Group + VERMILION GATE Copy</title>
    <desc>Created with Sketch.</desc>
    <defs></defs>
    <g id="Page-1" stroke="none" stroke-width="1" fill="none" fill-rule="evenodd" sketch:type="MSPage">
        <g id="Group-+-VERMILION-GATE-Copy" sketch:type="MSLayerGroup" fill="#FFFFFF">
            <g id="Group" sketch:type="MSShapeGroup">
                <path d="M125.645233,1.87124183 C125.879474,1.24444444 126.30662,0.704575163 126.802661,0.251633987 C127.735033,0.0823529412 128.694964,0.128104575 129.645708,0.109803922 C131.978936,3.3627451 132.46579,7.45751634 132.631137,11.3418301 C129.939658,8.51895425 126.292841,5.98888889 125.645233,1.87124183 L125.645233,1.87124183 Z M126.931264,2.29673203 C127.202249,2.73137255 127.477827,3.16143791 127.757998,3.59607843 C128.254039,3.53202614 128.754672,3.46797386 129.259899,3.40392157 C129.328793,2.90980392 129.402281,2.41568627 129.475768,1.92156863 C129.021064,1.61503268 128.570953,1.3130719 128.125436,1.01111111 C127.725847,1.43660131 127.326259,1.86666667 126.931264,2.29673203 L126.931264,2.29673203 Z" id="Shape"></path>
                <path d="M15.4094077,4.84509804 C16.3234083,3.94836601 17.5267659,4.80849673 18.5464048,5.00522876 C17.7839721,5.48104575 17.0123535,5.93856209 16.2453278,6.40522876 C18.5464048,10.4359477 19.8645866,14.896732 21.2700348,19.2843137 C20.7280646,18.7947712 20.1998733,18.2869281 19.6762749,17.779085 C18.656636,18.0352941 17.6507761,18.4424837 16.5852075,18.4333333 C15.0465632,17.9666667 13.778904,16.9143791 12.2770035,16.3562092 C11.7166614,16.0267974 11.2757365,16.1366013 10.9542287,16.6901961 C10.5959772,20.720915 10.9955654,25.2777778 14.068261,28.2699346 C16.4060817,28.1326797 17.9263541,26.2156863 19.8875515,25.2228758 C21.2103263,24.4862745 22.7030409,24.1522876 24.1819766,23.8960784 C23.0658853,24.6647059 21.9773519,25.4699346 20.9347482,26.3346405 C24.9168514,26.4398693 29.0367437,25.6849673 32.876465,27.103268 C30.4100412,27.2908497 27.6588533,26.8058824 25.5460881,28.4026144 C29.7624327,28.7823529 33.8547672,30.520915 36.8356034,33.5496732 C34.8744061,32.5477124 32.7983845,31.7745098 30.6213177,31.3947712 C31.6179918,32.2091503 32.6560025,32.9732026 33.7537219,33.6503268 C38.0573329,36.4045752 41.915426,39.872549 45.0156794,43.930719 C45.5346848,44.5620915 46.0261324,45.275817 46.7793792,45.6601307 C50.3067786,44.0679739 52.6629712,39.0856209 50.2378841,35.7183007 C49.3652201,35.9882353 48.5017422,36.2856209 47.6290782,36.5372549 C48.4190687,36.0248366 49.2274311,35.2379085 50.2608489,35.4712418 C51.5652518,36.2901961 51.7351916,37.9601307 51.6387393,39.3555556 C51.7030409,41.748366 50.3710801,43.8346405 49.2963256,45.8797386 C51.5790307,45.051634 53.3932531,43.4228758 55.0559075,41.7163399 C54.2291733,43.372549 53.3105797,44.9738562 52.2725689,46.5065359 C58.0734875,46.479085 63.3324359,43.4503268 67.6957555,39.8771242 C65.7391511,42.7640523 63.2359835,45.2666667 60.1862528,47.0006536 C63.8376623,49.2470588 68.1412734,49.9287582 72.2519797,50.8849673 C74.6954387,51.1228758 77.1986063,51.2326797 79.6374723,50.9261438 C82.3381375,49.2699346 83.6792841,46.2915033 85.0158378,43.5647059 C86.0584416,41.354902 87.9277795,39.6986928 89.9808362,38.4313725 C87.569528,42.1281046 87.858885,46.7490196 85.8701299,50.6196078 C88.6396896,49.8418301 91.5194805,48.4418301 92.8009186,45.7150327 C93.9124169,43.8895425 93.2464365,41.6888889 93.5955021,39.6941176 C94.4268293,42.0777778 94.0134621,44.6810458 93.2648084,47.0281046 C96.4247704,44.8915033 98.8911942,41.9359477 100.980995,38.7836601 C100.007285,37.5803922 98.77637,36.4091503 98.6982895,34.7620915 C98.5513145,32.3555556 98.5145708,29.9398693 97.9266709,27.5836601 C100.3242,29.4137255 101.596452,32.1496732 102.786031,34.8169935 C103.231549,33.1470588 104.388977,31.1019608 103.011086,29.5784314 C101.780171,27.9496732 101.316281,25.9366013 100.622743,24.0562092 C101.862844,24.9620915 103.006494,25.9869281 104.131771,27.0346405 C104.150143,25.5751634 104.085841,24.1111111 103.971017,22.6562092 C102.602312,21.8921569 100.801869,21.4986928 100.044029,19.9843137 C99.8878682,17.2666667 99.3964207,14.4986928 97.9220779,12.151634 C99.7684511,13.1627451 101.720462,14.3065359 102.643649,16.2921569 C104.88961,21.0137255 105.518847,26.4856209 104.411942,31.5915033 C102.377257,41.5562092 93.9629395,49.7366013 84.0283497,51.854902 C81.6262274,52.4405229 79.1276528,52.4176471 76.7301235,53.0215686 C78.4203358,53.9366013 80.3677542,53.8359477 82.2187203,53.6575163 C85.8012354,53.1267974 89.4618309,52.4908497 92.6723155,50.7202614 C97.4076655,48.3137255 101.183085,44.296732 103.787298,39.7215686 C104.944726,37.7130719 105.60152,35.4529412 106.90133,33.5267974 C106.676275,36.1071895 105.220304,38.3215686 104.067469,40.5679739 C100.631929,46.4424837 95.1065885,51.3745098 88.4008552,53.1039216 C84.4279379,54.1699346 80.1932214,54.7555556 76.1330377,53.8267974 C74.5668356,53.5111111 72.9914476,53.9320261 71.6962306,54.8333333 C76.4453595,56.7732026 81.6170415,57.9901961 86.7703516,57.3588235 C94.9550206,55.9633987 101.954704,50.6928105 106.892144,44.2235294 C109.202407,40.9843137 111.007444,37.3745098 111.967374,33.5039216 C112.830852,30.9052288 111.710168,28.0183007 112.959455,25.5111111 C114.217928,22.7202614 116.886443,20.972549 119.430947,19.4581699 C118.30567,21.3339869 117.001267,23.1777778 116.569528,25.3647059 C116.252613,26.654902 116.413367,28.0869281 115.710643,29.2673203 C115.058442,30.2098039 114.020431,30.7679739 113.10643,31.4130719 C113.092651,31.920915 113.078872,32.4333333 113.069686,32.9457516 C114.957396,31.0104575 117.524865,30.1 120.175008,29.8071895 C117.226322,32.1496732 116.009186,36.1300654 112.628761,37.9830065 C110.125594,38.9575163 109.726006,41.8993464 108.164397,43.7980392 C109.67089,43.6379085 111.191162,43.5601307 112.711435,43.5784314 C110.906398,44.8411765 109.087583,46.2091503 106.86918,46.6254902 C105.610706,46.8039216 104.862053,47.8928105 104.012354,48.7071895 C98.4502692,54.7189542 90.3161229,58.324183 82.0993031,58.2738562 C81.8926196,58.9098039 81.6767501,59.5457516 81.4608806,60.1816993 C78.5627178,60.3647059 75.8942034,59.0653595 73.4094077,57.7431373 C71.9396579,56.8509804 70.1621793,57.5143791 68.5592334,57.4915033 C73.1843522,60.9732026 78.7877732,62.9588235 84.4049731,64.1941176 C91.9971492,64.9398693 99.6857776,63.6496732 106.855401,61.1424837 C110.869655,59.5823529 114.939024,57.1895425 116.858885,53.1633987 C117.46975,52.0745098 117.308996,50.8026144 117.336554,49.6084967 C115.747387,49.6542484 114.185778,49.4254902 112.656319,49.0137255 C113.625436,48.5379085 114.539436,47.5816993 115.710643,47.8287582 C116.546563,48.2359477 117.230915,48.9267974 117.726956,49.7045752 C118.461831,52.8843137 116.220462,55.748366 114.043396,57.7980392 C109.257523,61.879085 102.859519,63.2424837 96.8611023,64.5372549 C97.9817865,64.7705882 99.1438074,64.875817 100.282863,64.7019608 C108.986538,63.2699346 117.387076,59.4176471 123.725372,53.2457516 C125.723313,51.2738562 127.216028,48.8718954 128.263225,46.2869281 C128.975135,46.4013072 129.687045,46.5156863 130.408141,46.5980392 C125.796801,53.254902 119.504435,58.8503268 112.004118,62.0575163 C105.633671,64.9856209 98.5605005,66.2163399 91.5700032,66.0882353 C92.4334812,67.3509804 93.310738,68.6045752 94.1191004,69.9084967 C91.8318023,68.2477124 89.1357301,67.3281046 86.7473868,65.8503268 C85.4613557,65.1091503 83.9456763,65.0313725 82.5356351,64.6653595 C77.377732,63.5901961 72.637789,61.2019608 68.044821,58.7130719 C68.9220779,60.5202614 69.9830535,62.3960784 69.7120684,64.4869281 C69.8452645,65.5712418 68.8991131,66.8431373 67.7233133,66.5228758 C67.048147,66.1980392 66.4786189,65.6947712 65.8861261,65.2509804 C66.9471017,65.520915 68.0126703,65.7862745 69.1149826,65.8411765 C69.1792841,64.5738562 69.202249,63.3019608 69.2068419,62.0346405 C67.3880266,60.5934641 65.3074121,59.4588235 62.9971492,59.0424837 C63.8560342,60.8816993 64.462306,62.9542484 63.5666772,64.9078431 C62.5654102,63.2745098 61.5044346,61.5039216 59.6902122,60.6620915 C57.3983212,60.6803922 55.2809629,61.7784314 53.0533735,62.2222222 C48.4098828,63.5078431 43.5688945,63.6267974 38.8565093,64.5052288 C42.209376,65.2326797 45.6265442,65.1320261 49.0299335,65.2647059 C43.3025024,66.7104575 37.2719354,67.6254902 31.4113082,66.4588235 C28.857618,66.0058824 26.5886918,64.624183 24.0395946,64.1437908 C20.815331,63.5352941 18.0182135,61.7509804 15.0190054,60.5294118 C16.5025341,62.0712418 18.1927463,63.4026144 19.7405765,64.8849673 C15.221096,62.8718954 10.9220779,59.9712418 8.31327209,55.6797386 C7.6518847,54.2843137 5.71824517,54.5084967 4.99255622,53.1862745 C2.93490656,50.2169935 1.78207159,46.5934641 2.00253405,42.9745098 C2.19543871,40.0738562 0.868070953,37.3882353 0.528191321,34.551634 C-0.509819449,27.6111111 0.835920177,19.769281 5.98923028,14.6496732 C7.57839721,12.9156863 9.87488122,12.1699346 11.7993348,10.8980392 C10.2469116,10.8111111 8.69908141,10.8431373 7.15125119,10.8111111 C6.76544188,10.4130719 6.37963256,10.0150327 5.99382325,9.62156863 C6.31073804,8.46862745 7.08694964,7.58104575 8.14792525,7.03202614 C8.10199557,7.93333333 8.03310105,8.83006536 7.98717137,9.72679739 C10.908299,10.4267974 13.8891353,10.9300654 16.8699715,11.2686275 C15.1338296,9.27385621 12.2907824,8.99019608 10.4122585,7.21503268 C10.2147608,6.41895425 10.3617358,5.59542484 11.0139373,5.04640523 C11.7947418,4.73071895 12.6674058,4.83594771 13.49414,4.75816993 C12.9751346,5.51764706 12.4377574,6.26339869 11.9509028,7.04117647 C14.0177384,8.81633987 16.3050364,10.3215686 18.5280329,11.8862745 C18.0090276,9.84117647 16.2912575,8.5372549 15.1613874,6.8627451 C14.6653468,6.28627451 14.6515679,5.21111111 15.4094077,4.84509804 L15.4094077,4.84509804 Z M14.8398796,12.9843137 C14.8261007,13.5058824 14.8169148,14.027451 14.8123218,14.5490196 C15.0557491,14.5215686 15.5380108,14.4666667 15.7814381,14.4392157 C15.9651568,14.0869281 16.3417802,13.3869281 16.5254989,13.0346405 C15.9605638,13.0163399 15.4002217,12.9980392 14.8398796,12.9843137 L14.8398796,12.9843137 Z M11.8085207,39.4150327 C11.3997466,43.4457516 12.6719987,48.0666667 16.3188153,50.3039216 C16.4520114,46.2869281 14.8858093,42.0915033 11.8085207,39.4150327 L11.8085207,39.4150327 Z M16.7000317,40.4901961 C17.6140323,43.7019608 17.8620526,47.0326797 18.1192588,50.345098 C18.1651885,52.779085 19.4420336,55.0117647 21.0771302,56.7503268 C20.810738,54.6 20.2182452,52.4862745 20.3376623,50.2947712 C20.3744061,46.7352941 19.4971492,42.9287582 16.7000317,40.4901961 L16.7000317,40.4901961 Z M6.25562243,44.3699346 C6.5174216,47.2568627 8.29030725,49.7503268 10.4719671,51.5620915 C9.54418752,47.7921569 9.58093126,43.7614379 7.82641748,40.2202614 C7.02724105,41.4647059 6.20050681,42.8418301 6.25562243,44.3699346 L6.25562243,44.3699346 Z M11.1563193,46.7947712 C10.8485904,50.1666667 12.4331644,53.7856209 15.3910358,55.5562092 C18.0182135,57.1895425 20.7326576,58.8457516 23.8053532,59.4771242 C22.4412417,56.979085 19.1434907,56.5215686 17.949319,53.9137255 C17.1409566,52.724183 17.090434,50.903268 15.6114983,50.2856209 C13.8661704,49.4803922 12.4561292,48.1810458 11.1563193,46.7947712 L11.1563193,46.7947712 Z M52.9247704,50.7660131 C52.1439658,51.2098039 51.7765283,52.1888889 52.2679759,52.9849673 C52.7732024,54.0875817 54.7527716,54.2065359 55.2028825,53.0078431 C56.1628128,51.6718954 54.2337662,49.7869281 52.9247704,50.7660131 L52.9247704,50.7660131 Z M22.390719,50.5052288 C22.2850808,52.330719 22.0508394,54.2431373 22.6938549,56.0045752 C23.4746595,58.1777778 24.9306303,60.4424837 27.3970542,60.8633987 C26.9653152,57.0522876 26.1202091,52.4954248 22.390719,50.5052288 L22.390719,50.5052288 Z M56.7369338,55.0620915 C54.9686411,55.830719 53.0166297,56.1418301 51.3815331,57.2078431 C55.0007919,57.5830065 59.290624,58.0130719 62.156636,55.2816993 C62.6894203,54.1333333 61.8902439,52.779085 60.6133988,52.7104575 C59.2033576,53.2915033 58.137789,54.4627451 56.7369338,55.0620915 L56.7369338,55.0620915 Z M67.9942984,54.3254902 C68.6464998,55.5287582 69.6385809,56.4392157 71.1221096,56.1601307 C70.2815965,55.2496732 69.197656,54.6228758 67.9942984,54.3254902 L67.9942984,54.3254902 Z M28.2605322,55.4418301 C28.2467532,57.3130719 28.3523915,59.1843137 28.8025024,61.0098039 C31.2275895,61.6183007 33.744536,61.8013072 36.2293316,61.5496732 C33.5562243,59.5366013 30.8509661,57.5647059 28.2605322,55.4418301 L28.2605322,55.4418301 Z" id="Shape"></path>
                <path d="M133.880424,10.1385621 C133.990656,8.18954248 135.86918,7.0869281 137.311372,6.09411765 C137.146025,7.26078431 136.810738,8.4 136.732658,9.57581699 C136.870447,11.2045752 137.669623,12.9980392 136.718879,14.5261438 C136.089642,15.4411765 136.190687,16.5254902 136.310105,17.5732026 C137.297593,16.4751634 138.023282,15.148366 139.121001,14.1418301 C140.18657,13.1901961 141.633354,12.8745098 142.965315,12.4673203 C140.554007,13.579085 138.119734,15.175817 137.297593,17.8477124 C136.728065,20.2816993 137.132246,22.8117647 137.104688,25.2869281 C138.271302,24.3581699 139.50681,23.520915 140.792841,22.7568627 C137.812005,25.9 136.778587,30.1503268 135.690054,34.1947712 C137.067944,34.1490196 138.450428,34.1581699 139.828318,34.2633987 C138.257523,35.5444444 136.815331,36.9764706 135.180234,38.1751634 C134.022806,38.9117647 133.81153,40.3803922 133.232816,41.5150327 C135.253722,41.2771242 137.270035,40.9797386 139.313906,41.048366 C136.764808,42.4300654 135.35936,45.3398693 132.543871,46.2686275 C131.639056,46.6071895 130.738834,46.2686275 129.948844,45.8339869 C135.497149,37.4660131 137.348115,26.9888889 135.768134,17.1477124 C135.391511,14.7411765 133.558917,12.6732026 133.880424,10.1385621 L133.880424,10.1385621 Z" id="Shape"></path>
                <path d="M113.455496,14.2470588 C113.887235,12.8287582 115.866804,12.4673203 116.858885,13.4921569 C117.602946,14.1464052 117.37789,15.2673203 117.217137,16.1228758 C116.275578,18.675817 114.906874,21.1281046 112.945676,23.045098 C112.954862,20.1261438 112.31644,17.0287582 113.455496,14.2470588 L113.455496,14.2470588 Z M114.548622,14.3248366 C114.392461,15.0705882 114.305195,16.0954248 115.269718,16.296732 C115.981628,15.9581699 116.75784,15.5326797 116.422553,14.6084967 C115.839246,14.169281 115.150301,13.5424837 114.548622,14.3248366 L114.548622,14.3248366 Z" id="Shape"></path>
                <path d="M118.250554,15.4915033 C120.032626,15.427451 122.003009,15.0156863 123.601362,16.0359477 C126.095344,17.5045752 127.124169,20.4052288 128.345898,22.8620915 C127.073646,22.6424837 125.732499,22.624183 124.547513,22.0751634 C123.417643,21.1189542 122.756256,19.7647059 121.777954,18.6803922 C120.818023,17.5732026 119.550364,16.8 118.291891,16.0771242 C118.282705,15.930719 118.264333,15.6379085 118.250554,15.4915033 L118.250554,15.4915033 Z" id="Shape"></path>
                <path d="M123.123693,28.979085 C123.279854,27.7620915 125.309946,27.0712418 125.760057,28.475817 C126.334178,29.930719 125.874881,31.5960784 125.585524,33.0875817 C124.676117,37.5895425 121.796326,41.3091503 119.09566,44.9006536 C120.661863,41.3777778 122.2051,37.7633987 122.572537,33.8836601 C122.875673,32.2640523 122.691954,30.575817 123.123693,28.979085 L123.123693,28.979085 Z" id="Shape"></path>
                <path d="M129.301235,38.6052288 C129.654894,38.4359477 130.357618,38.0928105 130.711277,37.9235294 C130.729648,40.8287582 130.274945,43.9993464 128.580139,46.4013072 C128.86031,43.8026144 129.535477,41.2405229 129.301235,38.6052288 L129.301235,38.6052288 Z" id="Shape"></path>
            </g>
            <path d="M149.758315,22.2939212 L154.094234,22.2939212 L162.286525,42.2928564 L169.859398,22.2939212 L172.436972,22.2939212 L162.106694,48.9045263 L160.688029,48.9045263 L160.248443,47.8481162 L158.190379,42.8210615 L155.213181,35.6265447 L152.255964,28.413814 L150.197901,23.3685453 L149.758315,22.2939212 Z M180.078847,22.3303492 L194.964838,22.3303492 L194.964838,24.0060341 L183.755387,24.0060341 L183.755387,33.8962179 L193.66606,33.8962179 L193.66606,35.5719028 L183.755387,35.5719028 L183.755387,46.7734922 L194.964838,46.7734922 L194.964838,48.4491771 L180.078847,48.4491771 L180.078847,22.3303492 Z M203.22613,22.3303492 L213.116822,22.3303492 C215.234839,22.3303492 216.913243,22.9617604 218.152083,24.2246017 C219.244394,25.3417305 219.790541,26.8474034 219.790541,28.7416654 C219.790541,31.1216356 218.838114,32.8640876 216.93323,33.9690738 C216.133978,34.4426393 214.948439,34.8797701 213.376577,35.2804793 L223.027495,48.4491771 L218.451801,48.4491771 L208.980714,35.5719028 L206.90267,35.5719028 L206.90267,48.4491771 L203.22613,48.4491771 L203.22613,22.3303492 Z M206.90267,24.0060341 L206.90267,33.8962179 L210.379398,33.8962179 C212.031185,33.8962179 213.369912,33.4287308 214.395618,32.4937425 C215.394683,31.5830396 215.894208,30.3505735 215.894208,28.7963073 C215.894208,27.1084713 215.394683,25.8577914 214.395618,25.0442302 C213.556404,24.352096 212.410827,24.0060341 210.958853,24.0060341 L206.90267,24.0060341 Z M230.049953,22.3303492 L234.226023,22.3303492 L242.03867,41.4003721 L250.190998,22.3303492 L253.867538,22.3303492 L253.867538,48.4491771 L250.190998,48.4491771 L250.190998,27.8856089 L241.099554,49.050238 L240.620005,49.050238 L232.307828,28.2316743 L232.307828,48.4491771 L230.049953,48.4491771 L230.049953,22.3303492 Z M263.547495,22.2939212 L267.224035,22.2939212 L267.224035,48.4491771 L263.547495,48.4491771 L263.547495,22.2939212 Z M276.923973,22.3303492 L280.600513,22.3303492 L280.600513,46.7734922 L291.809964,46.7734922 L291.809964,48.4491771 L276.923973,48.4491771 L276.923973,22.3303492 Z M299.671632,22.2939212 L303.348172,22.2939212 L303.348172,48.4491771 L299.671632,48.4491771 L299.671632,22.2939212 Z M326.635323,21.875 C329.139645,21.875 331.484082,22.4456986 333.668704,23.5871129 C335.933251,24.7649552 337.72488,26.4102671 339.043646,28.5230978 C340.375732,30.6359284 341.041765,32.924794 341.041765,35.3897631 C341.041765,37.8547323 340.375732,40.1435978 339.043646,42.2564285 C337.72488,44.3571165 335.933251,46.0024283 333.668704,47.1924134 C331.497403,48.3338277 329.152966,48.9045263 326.635323,48.9045263 C322.718989,48.9045263 319.362182,47.6234901 316.5648,45.0613794 C314.926334,43.5678266 313.740795,41.8010895 313.008148,39.7611151 C312.488634,38.3525613 312.228881,36.9258149 312.228881,35.480833 C312.228881,31.6437382 313.674173,28.389542 316.5648,25.7181469 C317.963491,24.4188775 319.628574,23.4231906 321.560099,22.7310564 C323.171924,22.1603493 324.863648,21.875 326.635323,21.875 L326.635323,21.875 Z M326.675285,23.5506849 C324.74376,23.5506849 322.92549,24.1881674 321.220419,25.4631514 C319.555311,26.71385 318.283188,28.3591619 317.404011,30.3991363 C316.684684,32.0505442 316.325026,33.7383549 316.325026,35.462619 C316.325026,38.6561504 317.344057,41.4125031 319.382149,43.7317598 C321.446883,46.0631592 323.877904,47.2288414 326.675285,47.2288414 C328.673415,47.2288414 330.518327,46.5913589 332.210077,45.3163749 C333.688693,44.2113887 334.84759,42.7846423 335.686805,41.0360928 C336.526019,39.3118286 336.94562,37.4783077 336.94562,35.5354749 C336.94562,32.2933726 335.906608,29.4702361 333.828553,27.0659805 C331.790461,24.7224384 329.406062,23.5506849 326.675285,23.5506849 L326.675285,23.5506849 Z M349.902493,22.3303492 L353.918713,22.3303492 L367.785663,42.3292844 L367.785663,22.3303492 L370.043538,22.3303492 L370.043538,48.4491771 L367.166246,48.4491771 L352.160368,27.2481201 L352.160368,48.4491771 L349.902493,48.4491771 L349.902493,22.3303492 Z M416.717747,46.9920598 C413.267643,48.3156147 410.010741,48.9773821 406.946942,48.9773821 C402.577699,48.9773821 399.061043,47.7631299 396.396871,45.3345888 C395.078105,44.132461 394.072395,42.6935721 393.37971,41.0178788 C392.660383,39.3057574 392.300725,37.4843789 392.300725,35.5536888 C392.300725,31.6558805 393.726037,28.3956131 396.576701,25.7727888 C398.161884,24.3156642 400.040098,23.2592647 402.211399,22.6035587 C403.809902,22.1178505 405.335118,21.875 406.787092,21.875 C408.931751,21.875 411.029756,22.3789147 413.081169,23.3867592 C414.160159,23.9088955 415.19251,24.6253044 416.178254,25.5360073 L414.479853,27.1752643 C412.162022,24.9167211 409.717681,23.7874665 407.146754,23.7874665 C404.935491,23.7874665 402.957372,24.4431627 401.212339,25.7545749 C399.826969,26.7745621 398.734675,28.1223821 397.935423,29.7980754 C397.096208,31.5709104 396.676607,33.4226451 396.676607,35.3533352 C396.676607,38.449725 397.682317,41.1453651 399.693768,43.4403363 C401.811785,45.8567346 404.555842,47.0649157 407.926021,47.0649157 C409.990754,47.0649157 411.695799,46.7552813 413.041207,46.1360034 L413.041207,35.6083307 L416.717747,35.6083307 L416.717747,46.9920598 Z M433.550972,22.3303492 L436.827888,22.3303492 L446.698598,48.4491771 L442.722341,48.4491771 L439.984917,41.2182324 L429.135127,41.2182324 L426.637478,48.4491771 L424.639358,48.4491771 L424.99902,47.410981 L426.67744,42.511424 L429.075184,35.444405 L431.492908,28.3591721 L433.19131,23.4049732 L433.550972,22.3303492 Z M429.594695,39.5061196 L439.3655,39.5061196 L434.250314,26.0277844 L434.070483,26.5559894 L433.211291,29.0695168 L431.952476,32.6940961 L430.693661,36.3368894 L429.794507,38.9232726 L429.594695,39.5061196 Z M449.465062,24.0060341 L449.465062,22.3303492 L468.82684,22.3303492 L468.82684,24.0060341 L460.954249,24.0060341 L460.954249,48.4491771 L457.277709,48.4491771 L457.277709,24.0060341 L449.465062,24.0060341 Z M476.268903,22.3303492 L491.154894,22.3303492 L491.154894,24.0060341 L479.945443,24.0060341 L479.945443,33.8962179 L489.856116,33.8962179 L489.856116,35.5719028 L479.945443,35.5719028 L479.945443,46.7734922 L491.154894,46.7734922 L491.154894,48.4491771 L476.268903,48.4491771 L476.268903,22.3303492 Z" id="VERMILION-GATE-Copy" sketch:type="MSShapeGroup"></path>
        </g>
    </g>
</svg>